<svg width="149" height="107" viewBox="0 0 149 107" fill="none" xmlns="http://www.w3.org/2000/svg">
<path d="M100.393 74.1C99.0194 74.1 97.7022 74.6426 96.731 75.6084C95.7599 76.5742 95.2143 77.8841 95.2143 79.25C95.2143 80.6159 95.7599 81.9258 96.731 82.8916C97.7022 83.8574 99.0194 84.4 100.393 84.4H121.107C122.481 84.4 123.798 83.8574 124.769 82.8916C125.74 81.9258 126.286 80.6159 126.286 79.25C126.286 77.8841 125.74 76.5742 124.769 75.6084C123.798 74.6426 122.481 74.1 121.107 74.1H100.393ZM2 27.75C2 20.9207 4.72799 14.3711 9.58384 9.542C14.4397 4.71294 21.0256 2 27.8929 2H121.107C127.974 2 134.56 4.71294 139.416 9.542C144.272 14.3711 147 20.9207 147 27.75V79.25C147 86.0793 144.272 92.6289 139.416 97.458C134.56 102.287 127.974 105 121.107 105H27.8929C21.0256 105 14.4397 102.287 9.58384 97.458C4.72799 92.6289 2 86.0793 2 79.25V27.75ZM136.643 32.9V27.75C136.643 23.6524 135.006 19.7226 132.093 16.8252C129.179 13.9278 125.227 12.3 121.107 12.3H27.8929C23.7725 12.3 19.821 13.9278 16.9074 16.8252C13.9939 19.7226 12.3571 23.6524 12.3571 27.75V32.9H136.643ZM12.3571 43.2V79.25C12.3571 83.3476 13.9939 87.2774 16.9074 90.1748C19.821 93.0722 23.7725 94.7 27.8929 94.7H121.107C125.227 94.7 129.179 93.0722 132.093 90.1748C135.006 87.2774 136.643 83.3476 136.643 79.25V43.2H12.3571Z" stroke="#23233D" stroke-width="4"/>
</svg>
