<svg width="117" height="117" viewBox="0 0 117 117" fill="none" xmlns="http://www.w3.org/2000/svg">
<path d="M3.50305 71.0891L9.70312 64.889L31.2746 69.2082L32.3245 69.4184L33.0815 68.6614L53.8924 47.8505L55.888 45.8548L53.3438 44.6333L6.98497 22.3757L12.3983 16.9581L76.1965 24.4642L77.159 24.5774L77.8444 23.8921L96.4161 5.32034L96.4284 5.30805L96.4405 5.29555C97.4363 4.26453 98.6274 3.44215 99.9445 2.8764C101.261 2.31065 102.678 2.01286 104.111 2.00041C105.545 1.98795 106.966 2.26108 108.293 2.80386C109.619 3.34663 110.825 4.14819 111.838 5.16175C112.852 6.17531 113.653 7.38057 114.196 8.70722C114.739 10.0339 115.012 11.4553 115 12.8887C114.987 14.322 114.689 15.7385 114.124 17.0555C113.558 18.3725 112.735 19.5637 111.704 20.5595L111.692 20.5717L111.679 20.5841L93.5875 38.6825L92.9025 39.3677L93.0156 40.3299L100.515 104.129L94.6502 109.994L72.765 63.2894L71.5554 60.7081L69.5397 62.7238L48.345 83.9185L47.5882 84.6753L47.7981 85.7248L52.1112 107.297L45.9107 113.497L33.4991 84.5447L33.184 83.8095L32.4487 83.4944L3.50305 71.0891Z" stroke="#23233D" stroke-width="4"/>
</svg>
