<svg width="29" height="24" viewBox="0 0 29 24" fill="none" xmlns="http://www.w3.org/2000/svg">
<path d="M4.1485 9.84963C3.73553 9.45434 3.19444 9.24216 2.63873 9.25231C2.08026 9.26251 1.54387 9.4966 1.14362 9.91089C0.74285 10.3257 0.510462 10.8888 0.500344 11.4823C0.490275 12.073 0.701263 12.6419 1.08448 13.0708L10.5216 22.8425L4.1485 9.84963ZM4.1485 9.84963L11.6121 17.5787L12.0176 17.9986L12.3702 17.5335L24.763 1.1899C24.7633 1.18945 24.7637 1.18899 24.764 1.18854C24.7731 1.17699 24.7827 1.16612 24.7928 1.15597L24.4387 0.802953L24.7968 1.15193C25.2043 0.733741 25.7509 0.501626 26.3172 0.500009C26.8836 0.498391 27.4313 0.727374 27.841 1.14317C28.2513 1.55953 28.4898 2.12982 28.4997 2.73172C28.5096 3.33364 28.29 3.91235 27.8933 4.34332L27.8787 4.35915L27.8656 4.37618L13.6296 22.7952C13.4319 23.0118 13.1958 23.1848 12.9352 23.3053C12.6694 23.4282 12.3831 23.4941 12.0934 23.4996C11.8036 23.5052 11.5153 23.4503 11.2455 23.3378C10.9758 23.2253 10.7296 23.0574 10.5219 22.8429L4.1485 9.84963Z" stroke="black"/>
</svg>
