<svg width="119" height="147" viewBox="0 0 119 147" fill="none" xmlns="http://www.w3.org/2000/svg">
<path d="M114.683 20.3238L61.8625 2.32638C61.2251 2.10879 60.3702 2 59.5152 2C58.6603 2 57.8053 2.10879 57.168 2.32638L4.34724 20.3238C3.05704 20.7589 2 22.251 2 23.6186V98.5922C2 99.9599 2.88605 101.763 3.95863 102.618L57.541 144.363C58.0851 144.782 58.7846 145 59.4997 145C60.2147 145 60.9298 144.782 61.4583 144.363L115.041 102.618C116.113 101.778 116.999 99.9754 116.999 98.5922V23.6186C117.03 22.251 115.973 20.7745 114.683 20.3238V20.3238ZM105.838 95.6082L59.5152 131.696L13.1922 95.6082V29.1515L59.5152 13.361L105.838 29.1515V95.6082ZM42.7581 64.3692C42.2917 63.732 41.5456 63.3434 40.7373 63.3434H32.1566C31.1462 63.3434 30.5555 64.4935 31.1462 65.3172L50.7947 92.36C51.027 92.6779 51.3311 92.9365 51.6822 93.1148C52.0334 93.2931 52.4216 93.386 52.8155 93.386C53.2093 93.386 53.5976 93.2931 53.9487 93.1148C54.2998 92.9365 54.6039 92.6779 54.8363 92.36L87.8842 46.8691C88.4749 46.0454 87.8842 44.8953 86.8738 44.8953H78.2932C77.5004 44.8953 76.7387 45.2839 76.2723 45.9211L52.8155 78.2169L42.7581 64.3692Z" stroke="#FEC93F" stroke-width="4"/>
</svg>
